<svg xmlns="http://www.w3.org/2000/svg" viewBox="0 0 900 560" role="img" aria-labelledby="title desc">
<title id="title">Lab map</title>
<desc id="desc">A glowing map of creative build locations.</desc>
<defs><linearGradient id="bg" x1="0" x2="1" y1="1" y2="0"><stop offset="0" stop-color="#001a24"/><stop offset=".52" stop-color="#12002d"/><stop offset="1" stop-color="#290017"/></linearGradient><filter id="glow"><feGaussianBlur stdDeviation="6" result="blur"/><feMerge><feMergeNode in="blur"/><feMergeNode in="SourceGraphic"/></feMerge></filter></defs>
<rect width="900" height="560" fill="url(#bg)"/>
<path d="M110 430 C240 330 300 410 410 300 C520 188 650 260 780 135" fill="none" stroke="#42fff4" stroke-width="8" stroke-linecap="round" filter="url(#glow)"/>
<g filter="url(#glow)"><path d="M180 320 L270 245 L360 320 L360 432 L180 432 Z" fill="#07172c" stroke="#ff42d0" stroke-width="5"/><path d="M445 210 L548 135 L650 210 L650 432 L445 432 Z" fill="#07172c" stroke="#ffd05a" stroke-width="5"/><path d="M640 292 L730 220 L820 292 L820 432 L640 432 Z" fill="#07172c" stroke="#42fff4" stroke-width="5"/></g>
<g fill="#eaffff"><rect x="220" y="345" width="35" height="87"/><rect x="520" y="315" width="42" height="117"/><rect x="702" y="348" width="38" height="84"/></g>
<g font-family="monospace" font-size="25" fill="#ffffff"><text x="168" y="165">BEDROOM LAB</text><text x="422" y="92">CAMPUS NODE</text><text x="610" y="495">CLOUD DESK</text></g>
<g fill="#ffffff"><circle cx="115" cy="120" r="4"/><circle cx="805" cy="88" r="5"/><circle cx="394" cy="478" r="4"/><circle cx="87" cy="402" r="3"/></g>
</svg>
